{"title":"Ashlynn Brooke - Addicted 4","uid":7323513,"size":345427968,"categoryP":"porn","categoryS":"movies","magnet":"?xt=urn:btih:f3ee3988512138a961845024bf2f25d3202e74ad&amp;dn=Ashlynn+Brooke+-+Addicted+4&amp;tr=udp%3A%2F%2Ftracker.openbittorrent.com%3A80&amp;tr=udp%3A%2F%2Fopen.demonii.com%3A1337&amp;tr=udp%3A%2F%2Ftracker.coppersurfer.tk%3A6969&amp;tr=udp%3A%2F%2Fexodus.desync.com%3A6969","seeders":0,"leechers":0,"uploader":"soulless123","files":1,"time":1338684993,"description":"Screen\n &lt;a href=&quot;\nhttp://bayimg.com/JaohlAAdP&quot; rel=&quot;nofollow&quot; target=&quot;_NEW&quot;&gt;\nhttp://bayimg.com/JaohlAAdP&lt;/a&gt;\n\nSeeding Time 24/7\n\nDon't Forget To Say Thanks If You Like My Post\n\n\n\n-=Media Info=-\n\nFormat : AVI\nFormat/Info : Audio Video Interleave\nFile size : 329 MiB\nDuration : 28mn 24s\nOverall bit rate mode : Variable\nOverall bit rate : 1 622 Kbps\nMovie name : Ashlynn Brooke - Addicted 4\nSubject : Ashlynn Brooke - Addicted 4\nWriting application : Nandub v1.0rc2\nWriting library : Nandub build 1853/release\n\nVideo\nID : 0\nFormat : MPEG-4 Visual\nFormat profile : Advanced Simple@L5\nFormat settings, BVOP : 2\nFormat settings, QPel : No\nFormat settings, GMC : No warppoints\nFormat settings, Matrix : Default (H.263)\nCodec ID : XVID\nCodec ID/Hint : XviD\nDuration : 28mn 24s\nBit rate : 1 478 Kbps\nWidth : 624 pixels\nHeight : 352 pixels\nDisplay aspect ratio : 16:9\nFrame rate : 29.970 fps\nColor space : YUV\nChroma subsampling : 40\nBit depth : 8 bits\nScan type : Progressive\nCompression mode : Lossy\nBits/(Pixel*Frame) : 0.224\nStream size : 300 MiB (91%)\nWriting library : XviD 1.2.0SMP (UTC 2006-01-08)\n\nAudio\nID : 1\nFormat : MPEG Audio\nFormat version : Version 1\nFormat profile : Layer 3\nMode : Joint stereo\nMode extension : MS Stereo\nCodec ID : 55\nCodec ID/Hint : MP3\nDuration : 28mn 24s\nBit rate mode : Variable\nBit rate : 128 Kbps\nChannel(s) : 2 channels\nSampling rate : 48.0 KHz\nCompression mode : Lossy\nStream size : 26.5 MiB (8%)\nAlignment : Aligned on interleaves\nInterleave, duration : 24 ms (0.72 video frame)\nInterleave, preload duration : 471 ms ","torrent":{"xt":"urn:btih:f3ee3988512138a961845024bf2f25d3202e74ad","amp;dn":"Ashlynn+Brooke+-+Addicted+4","amp;tr":["udp%3A%2F%2Ftracker.openbittorrent.com%3A80","udp%3A%2F%2Fopen.demonii.com%3A1337","udp%3A%2F%2Ftracker.coppersurfer.tk%3A6969","udp%3A%2F%2Fexodus.desync.com%3A6969"],"infoHash":"f3ee3988512138a961845024bf2f25d3202e74ad","infoHashBuffer":{"type":"Buffer","data":[243,238,57,136,81,33,56,169,97,132,80,36,191,47,37,211,32,46,116,173]},"announce":[],"urlList":[]}}